<svg width="78" height="70" viewBox="0 0 78 70" fill="none" xmlns="http://www.w3.org/2000/svg">
<path d="M40.667 21.576V35.272H58.011V42.152H40.667V61H32.027V14.728H61.211V21.576H40.667Z" fill="black"/>
<path d="M40.667 21.576V20.576H39.667V21.576H40.667ZM40.667 35.272H39.667V36.272H40.667V35.272ZM58.011 35.272H59.011V34.272H58.011V35.272ZM58.011 42.152V43.152H59.011V42.152H58.011ZM40.667 42.152V41.152H39.667V42.152H40.667ZM40.667 61V62H41.667V61H40.667ZM32.027 61H31.027V62H32.027V61ZM32.027 14.728V13.728H31.027V14.728H32.027ZM61.211 14.728H62.211V13.728H61.211V14.728ZM61.211 21.576V22.576H62.211V21.576H61.211ZM39.667 21.576V35.272H41.667V21.576H39.667ZM40.667 36.272H58.011V34.272H40.667V36.272ZM57.011 35.272V42.152H59.011V35.272H57.011ZM58.011 41.152H40.667V43.152H58.011V41.152ZM39.667 42.152V61H41.667V42.152H39.667ZM40.667 60H32.027V62H40.667V60ZM33.027 61V14.728H31.027V61H33.027ZM32.027 15.728H61.211V13.728H32.027V15.728ZM60.211 14.728V21.576H62.211V14.728H60.211ZM61.211 20.576H40.667V22.576H61.211V20.576Z" fill="black"/>
<g filter="url(#filter0_d_403_2)">
<path d="M51.2845 18.8H37.3325V58H28.7245V18.8H14.7725V11.728H51.2845V18.8Z" fill="white"/>
<path d="M51.2845 18.8V19.8H52.2845V18.8H51.2845ZM37.3325 18.8V17.8H36.3325V18.8H37.3325ZM37.3325 58V59H38.3325V58H37.3325ZM28.7245 58H27.7245V59H28.7245V58ZM28.7245 18.8H29.7245V17.8H28.7245V18.8ZM14.7725 18.8H13.7725V19.8H14.7725V18.8ZM14.7725 11.728V10.728H13.7725V11.728H14.7725ZM51.2845 11.728H52.2845V10.728H51.2845V11.728ZM51.2845 17.8H37.3325V19.8H51.2845V17.8ZM36.3325 18.8V58H38.3325V18.8H36.3325ZM37.3325 57H28.7245V59H37.3325V57ZM29.7245 58V18.8H27.7245V58H29.7245ZM28.7245 17.8H14.7725V19.8H28.7245V17.8ZM15.7725 18.8V11.728H13.7725V18.8H15.7725ZM14.7725 12.728H51.2845V10.728H14.7725V12.728ZM50.2845 11.728V18.8H52.2845V11.728H50.2845Z" fill="black"/>
</g>
<defs>
<filter id="filter0_d_403_2" x="14.7725" y="11.728" width="45.5121" height="55.272" filterUnits="userSpaceOnUse" color-interpolation-filters="sRGB">
<feFlood flood-opacity="0" result="BackgroundImageFix"/>
<feColorMatrix in="SourceAlpha" type="matrix" values="0 0 0 0 0 0 0 0 0 0 0 0 0 0 0 0 0 0 127 0" result="hardAlpha"/>
<feOffset dx="5" dy="5"/>
<feGaussianBlur stdDeviation="2"/>
<feComposite in2="hardAlpha" operator="out"/>
<feColorMatrix type="matrix" values="0 0 0 0 0 0 0 0 0 0 0 0 0 0 0 0 0 0 0.25 0"/>
<feBlend mode="normal" in2="BackgroundImageFix" result="effect1_dropShadow_403_2"/>
<feBlend mode="normal" in="SourceGraphic" in2="effect1_dropShadow_403_2" result="shape"/>
</filter>
</defs>
</svg>
